<?xml version="1.0" encoding="iso-8859-1"?>
<!-- Generator: Adobe Illustrator 16.0.0, SVG Export Plug-In . SVG Version: 6.00 Build 0)  -->
<!DOCTYPE svg PUBLIC "-//W3C//DTD SVG 1.1//EN" "http://www.w3.org/Graphics/SVG/1.1/DTD/svg11.dtd">
<svg version="1.1" id="Capa_1" xmlns="http://www.w3.org/2000/svg" xmlns:xlink="http://www.w3.org/1999/xlink" x="0px" y="0px"
	 width="461.002px" height="461.002px" viewBox="0 0 461.002 461.002" style="enable-background:new 0 0 461.002 461.002;"
	 xml:space="preserve">
<g>
	<g>
		<path d="M461.001,448.502V12.5c0-6.903-5.596-12.5-12.5-12.5h-436c-6.904,0-12.5,5.597-12.5,12.5v436.002
			c0,6.903,5.596,12.5,12.5,12.5h436C455.405,461.002,461.001,455.405,461.001,448.502z M436.001,436.002h-411V25h411V436.002z"/>
		<path d="M151.755,337.012c6.903,0,12.5-5.597,12.5-12.5v-81.511h132.492v81.511c0,6.903,5.597,12.5,12.5,12.5
			s12.5-5.597,12.5-12.5V136.49c0-6.903-5.597-12.5-12.5-12.5s-12.5,5.597-12.5,12.5v81.511H164.255V136.49
			c0-6.903-5.597-12.5-12.5-12.5c-6.903,0-12.5,5.597-12.5,12.5v188.021C139.255,331.415,144.852,337.012,151.755,337.012z"/>
	</g>
</g>
<g>
</g>
<g>
</g>
<g>
</g>
<g>
</g>
<g>
</g>
<g>
</g>
<g>
</g>
<g>
</g>
<g>
</g>
<g>
</g>
<g>
</g>
<g>
</g>
<g>
</g>
<g>
</g>
<g>
</g>
</svg>
